<svg xmlns="http://www.w3.org/2000/svg" width="24" height="24" viewBox="0 0 24 24">
  <path fill="#fff" d="M12 2C6.48 2 2 6.48 2 12s4.48 10 10 10 10-4.48 10-10S17.52 2 12 2zm5.64 13.64c-.66 1.95-2.28 3.39-4.24 3.89-1.96.5-4.02-.04-5.55-1.44-1.53-1.4-2.29-3.41-2.06-5.44.23-2.03 1.45-3.81 3.25-4.75 1.8-.94 3.93-.94 5.73 0-.45.45-1.23 1.23-1.68 1.68-.91-.44-1.97-.44-2.88 0-1.51.78-2.3 2.48-1.91 4.13.39 1.65 1.87 2.84 3.57 2.84 1.09 0 2.13-.47 2.84-1.28.51-.58.77-1.32.77-2.08h-3.61v-2h6c.12.63.18 1.28.18 1.93 0 1.17-.23 2.33-.68 3.41z"/>
</svg>
